<svg width="36" height="37" viewBox="0 0 36 37" fill="none" xmlns="http://www.w3.org/2000/svg">
<mask id="mask0" mask-type="alpha" maskUnits="userSpaceOnUse" x="0" y="0" width="36" height="37">
<rect y="0.749939" width="36" height="36" fill="#C4C4C4"/>
</mask>
<g mask="url(#mask0)">
<path opacity="0.2" d="M36.0009 2.24991L36.0009 33.7499C36.0009 35.4068 34.6577 36.7499 33.0009 36.7499L3.00085 36.7499C1.344 36.7499 0.000853101 35.4068 0.00085317 33.7499L0.000853874 16.9867L7.56085 19.1973L13.8609 11.6446L23.4009 16.2499L36.0009 2.24991Z" fill="#784BD1"/>
<path opacity="0.2" d="M36.0008 2.24997L36.0008 33.75C36.0008 35.4068 34.6577 36.75 33.0008 36.75L3.00085 36.75C1.344 36.75 0.000853093 35.4068 0.000853162 33.75L0.000854303 6.56247L7.02085 12.375L15.3009 19.125L27.0008 2.06247L36.0009 10.6875L36.0008 2.24997Z" fill="#784BD1"/>
<path d="M38.7001 13.8749L26.6401 1.87494L23.0401 7.31244L14.9401 19.1249L4.86007 10.8749L-2.51993 4.68744" stroke="#784BD1" stroke-width="1.575" stroke-linecap="round" stroke-linejoin="round"/>
<path d="M0.000732422 16.8749L7.86389 19.4999L14.1165 11.8124L23.7607 16.4999L36.3607 2.24991" stroke="#784BD1" stroke-width="1.575" stroke-linecap="square" stroke-linejoin="round"/>
</g>
</svg>
