<svg width="36" height="36" viewBox="0 0 36 36" fill="none" xmlns="http://www.w3.org/2000/svg">
<path d="M11.5205 6.10352e-05L11.5205 4.50006L0.750505 4.50006C0.336292 4.50006 0.000504312 4.16427 0.00050433 3.75006L0.000504461 0.750061C0.000504479 0.335847 0.336291 6.05463e-05 0.750504 6.05644e-05L11.5205 6.10352e-05Z" fill="#784BD1"/>
<path d="M20.1604 10.5001L20.1604 15.0001L0.750389 15.0001C0.336176 15.0001 0.000390824 14.6643 0.000390843 14.2501L0.000390974 11.2501C0.000390992 10.8359 0.336178 10.5001 0.750391 10.5001L20.1604 10.5001Z" fill="#784BD1"/>
<path d="M13.3199 21L13.3199 25.5L0.749941 25.5C0.335727 25.5 -5.93098e-05 25.1643 -5.92917e-05 24.75L-5.91606e-05 21.75C-5.91425e-05 21.3358 0.335728 21 0.749941 21L13.3199 21Z" fill="#784BD1"/>
<path d="M7.92017 31.5001L7.92017 36.0001L0.750163 36.0001C0.335949 36.0001 0.000162419 35.6643 0.000162438 35.2501L0.000162569 32.2501C0.000162587 31.8358 0.335949 31.5001 0.750163 31.5001L7.92017 31.5001Z" fill="#784BD1"/>
<path d="M35.2494 7.62612e-05C35.6636 7.62793e-05 35.9994 0.335863 35.9994 0.750076L35.9994 3.75008C35.9994 4.16429 35.6636 4.50008 35.2494 4.50008L25.1994 4.50008L25.1994 7.58219e-05L35.2494 7.62612e-05Z" fill="#009AFF"/>
<path d="M35.2504 10.5C35.6646 10.5 36.0004 10.8358 36.0004 11.25L36.0004 14.25C36.0004 14.6642 35.6646 15 35.2504 15L28.8004 15L28.8004 10.5L35.2504 10.5Z" fill="#009AFF"/>
<path d="M35.2504 21.0001C35.6646 21.0001 36.0004 21.3359 36.0004 21.7501L36.0004 24.7501C36.0004 25.1643 35.6646 25.5001 35.2504 25.5001L23.4004 25.5001L23.4004 21.0001L35.2504 21.0001Z" fill="#009AFF"/>
<path d="M35.2504 31.5001C35.6646 31.5001 36.0004 31.8358 36.0004 32.2501L36.0004 35.2501C36.0004 35.6643 35.6646 36.0001 35.2504 36.0001L25.9204 36.0001L25.9204 31.5001L35.2504 31.5001Z" fill="#009AFF"/>
<path d="M25.1998 6.10352e-05L25.1998 4.50006L11.5198 4.50006L11.5198 6.04372e-05L25.1998 6.10352e-05Z" fill="#FDAB3D"/>
<path d="M28.8007 10.5001L28.8007 15.0001L20.1607 15.0001L20.1607 10.5001L28.8007 10.5001Z" fill="#FDAB3D"/>
<path d="M23.4004 21L23.4004 25.5L13.3204 25.5L13.3204 21L23.4004 21Z" fill="#FDAB3D"/>
<path d="M25.9199 31.5001L25.9199 36.0001L7.91991 36.0001L7.91991 31.5001L25.9199 31.5001Z" fill="#FDAB3D"/>
</svg>
