<svg width="36" height="36" viewBox="0 0 36 36" fill="none" xmlns="http://www.w3.org/2000/svg">
<path d="M4.40894 0L4.40894 4.5L0.750772 4.5C0.336559 4.5 0.000771821 4.16421 0.000771839 3.75L0.000771967 0.75C0.000771985 0.335786 0.336558 -1.81718e-07 0.750772 -1.63235e-07L4.40894 0Z" fill="#784BD1"/>
<path d="M12.4902 10.5L12.4902 15L0.750435 15C0.336222 15 0.000435651 14.6642 0.000435669 14.25L0.000435797 11.25C0.000435815 10.8358 0.336223 10.5 0.750436 10.5L12.4902 10.5Z" fill="#784BD1"/>
<path d="M11.0214 21L11.0214 25.5L0.750951 25.5C0.336736 25.5 0.000950635 25.1642 0.000950653 24.75L0.000950781 21.75C0.000950799 21.3358 0.336738 21 0.750951 21L11.0214 21Z" fill="#784BD1"/>
<path d="M12.8578 31.5L12.8578 36L0.750642 36C0.336428 36 0.000641645 35.6642 0.000641662 35.25L0.000641791 32.25C0.000641808 31.8358 0.336429 31.5 0.750642 31.5L12.8578 31.5Z" fill="#784BD1"/>
<path d="M15.7814 -3.34665e-08C16.1956 -1.49835e-08 16.5314 0.335786 16.5314 0.75L16.5314 3.75C16.5314 4.16421 16.1956 4.5 15.7814 4.5L8.08239 4.5L8.08239 -3.77011e-07L15.7814 -3.34665e-08Z" fill="#009AFF"/>
<path d="M35.2505 10.5C35.6647 10.5 36.0005 10.8358 36.0005 11.25L36.0005 14.25C36.0005 14.6642 35.6647 15 35.2505 15L24.9801 15L24.9801 10.5L35.2505 10.5Z" fill="#009AFF"/>
<path d="M22.0262 21C22.4405 21 22.7762 21.3358 22.7762 21.75L22.7762 24.75C22.7762 25.1642 22.4405 25.5 22.0262 25.5L18.3681 25.5L18.3681 21L22.0262 21Z" fill="#009AFF"/>
<path d="M29.3733 31.5C29.7875 31.5 30.1233 31.8358 30.1233 32.25L30.1233 35.25C30.1233 35.6642 29.7875 36 29.3733 36L22.0417 36L22.0417 31.5L29.3733 31.5Z" fill="#009AFF"/>
<path d="M8.08252 0L8.08252 4.5L4.40905 4.5L4.40905 -1.63918e-07L8.08252 0Z" fill="#FDAB3D"/>
<path d="M24.9803 10.5L24.9803 15L12.4905 15L12.4905 10.5L24.9803 10.5Z" fill="#FDAB3D"/>
<path d="M18.3679 21L18.3679 25.5L11.021 25.5L11.021 21L18.3679 21Z" fill="#FDAB3D"/>
<path d="M22.0415 31.5L22.0415 36L12.8578 36L12.8578 31.5L22.0415 31.5Z" fill="#FDAB3D"/>
</svg>
