<svg width="36" height="36" viewBox="0 0 36 36" fill="none" xmlns="http://www.w3.org/2000/svg">
<path d="M0.000244141 31.68H4.50024V35.25C4.50024 35.6642 4.16446 36 3.75024 36H0.750244C0.336031 36 0.000244141 35.6642 0.000244141 35.25V31.68Z" fill="#784BD1"/>
<path d="M10.5005 19.44H15.0005V35.25C15.0005 35.6642 14.6647 36 14.2505 36H11.2505C10.8363 36 10.5005 35.6642 10.5005 35.25V19.44Z" fill="#784BD1"/>
<path d="M21.0001 33.12H25.5001V35.25C25.5001 35.6642 25.1643 36 24.7501 36H21.7501C21.3359 36 21.0001 35.6642 21.0001 35.25V33.12Z" fill="#784BD1"/>
<path d="M31.5004 30.9601H36.0004V35.2501C36.0004 35.6643 35.6646 36.0001 35.2504 36.0001H32.2504C31.8362 36.0001 31.5004 35.6643 31.5004 35.2501V30.9601Z" fill="#784BD1"/>
<path d="M0.000244141 16.59C0.000244141 16.1758 0.336031 15.84 0.750244 15.84H3.75024C4.16446 15.84 4.50024 16.1758 4.50024 16.59V28.08H0.000244141V16.59Z" fill="#009AFF"/>
<path d="M10.5005 0.75C10.5005 0.335786 10.8363 0 11.2505 0H14.2505C14.6647 0 15.0005 0.335786 15.0005 0.75V7.2H10.5005V0.75Z" fill="#009AFF"/>
<path d="M21.0001 28.11C21.0001 27.6958 21.3359 27.36 21.7501 27.36H24.7501C25.1643 27.36 25.5001 27.6958 25.5001 28.11V31.68H21.0001V28.11Z" fill="#009AFF"/>
<path d="M31.5004 19.47C31.5004 19.0557 31.8362 18.72 32.2504 18.72H35.2504C35.6646 18.72 36.0004 19.0557 36.0004 19.47V26.64H31.5004V19.47Z" fill="#009AFF"/>
<path d="M0.000244141 28.08H4.50024V31.68H0.000244141V28.08Z" fill="#FDAB3D"/>
<path d="M10.5005 7.2H15.0005V19.44H10.5005V7.2Z" fill="#FDAB3D"/>
<path d="M21.0001 31.68H25.5001V33.12H21.0001V31.68Z" fill="#FDAB3D"/>
<path d="M31.5004 26.64H36.0004V30.96H31.5004V26.64Z" fill="#FDAB3D"/>
</svg>
