<svg xmlns="http://www.w3.org/2000/svg" xmlns:xlink="http://www.w3.org/1999/xlink" width="324px" height="75px" viewBox="0 0 324 75" version="1.1">
    <!-- Generator: Sketch 50.2 (55047) - http://www.bohemiancoding.com/sketch -->
    <title>calendar</title>
    <desc>Created with Sketch.</desc>
    <defs/>
    <g id="calendar" stroke="none" stroke-width="1" fill="none" fill-rule="evenodd">
        <g id="Group-41">
            <g id="Group-6-Copy-2" fill="#23165B">
                <rect id="Rectangle-4-Copy-7" x="0" y="0" width="324" height="75"/>
            </g>
            <ellipse id="Oval-12" fill="#00A9FF" cx="26.2429907" cy="24" rx="11.1028037" ry="11"/>
            <ellipse id="Oval-12-Copy-2" fill="#A358DF" cx="101.943925" cy="51" rx="11.1028037" ry="11"/>
            <rect id="Rectangle-32" fill="#FFCC00" x="202.878505" y="39" width="67.6261682" height="23" rx="11.5"/>
            <path d="M29.5137814,28 L23.9239376,28 L23.9239376,27.2207031 L26.8770626,23.9394531 C27.3145648,23.4433569 27.6163196,23.0400406 27.7823361,22.7294922 C27.9483525,22.4189438 28.0313595,22.0976579 28.0313595,21.765625 C28.0313595,21.3203103 27.8965952,20.9550796 27.6270626,20.6699219 C27.35753,20.3847642 26.9981586,20.2421875 26.5489376,20.2421875 C26.0098725,20.2421875 25.5909313,20.3955063 25.2921017,20.7021484 C24.9932721,21.0087906 24.8438595,21.4355441 24.8438595,21.9824219 L23.7598751,21.9824219 C23.7598751,21.1972617 24.0128023,20.5625024 24.5186642,20.078125 C25.0245261,19.5937476 25.7012772,19.3515625 26.5489376,19.3515625 C27.3419104,19.3515625 27.9688572,19.5595682 28.429797,19.9755859 C28.8907368,20.3916036 29.1212033,20.945309 29.1212033,21.6367188 C29.1212033,22.4765667 28.5860524,23.4765567 27.5157345,24.6367188 L25.2305783,27.1152344 L29.5137814,27.1152344 L29.5137814,28 Z" id="2" fill="#FFFFFF"/>
            <path d="M22.4397087,55 L21.3498649,55 L21.3498649,47.7753906 L19.164318,48.578125 L19.164318,47.59375 L22.2697868,46.4277344 L22.4397087,46.4277344 L22.4397087,55 Z M30.9650993,51.3613281 C30.9650993,52.6308657 30.7483046,53.5742157 30.3147087,54.1914062 C29.8811128,54.8085968 29.2033852,55.1171875 28.2815055,55.1171875 C27.3713447,55.1171875 26.6975234,54.8154327 26.2600212,54.2119141 C25.822519,53.6083954 25.5959588,52.7070372 25.5803337,51.5078125 L25.5803337,50.0605469 C25.5803337,48.8066344 25.7971284,47.875003 26.2307243,47.265625 C26.6643202,46.656247 27.3440009,46.3515625 28.2697868,46.3515625 C29.1877601,46.3515625 29.8635346,46.6455049 30.2971305,47.2333984 C30.7307265,47.821292 30.9533805,48.7285095 30.9650993,49.9550781 L30.9650993,51.3613281 Z M29.8811149,49.8789062 C29.8811149,48.9609329 29.75221,48.2919943 29.4943962,47.8720703 C29.2365824,47.4521463 28.8283833,47.2421875 28.2697868,47.2421875 C27.7150965,47.2421875 27.3108037,47.4511698 27.0568962,47.8691406 C26.8029887,48.2871115 26.6721306,48.9296832 26.664318,49.796875 L26.664318,51.53125 C26.664318,52.4531296 26.7981058,53.1337869 27.0656852,53.5732422 C27.3332647,54.0126975 27.7385341,54.2324219 28.2815055,54.2324219 C28.8166645,54.2324219 29.2141214,54.0253927 29.4738884,53.6113281 C29.7336553,53.1972636 29.8693961,52.5449263 29.8811149,51.6542969 L29.8811149,49.8789062 Z" id="10" fill="#FFFFFF" opacity="0.457254464"/>
            <path d="M63.8552497,23.2070312 L64.6697028,23.2070312 C65.1814241,23.1992187 65.5837639,23.0644544 65.8767341,22.8027344 C66.1697043,22.5410143 66.3161872,22.1875022 66.3161872,21.7421875 C66.3161872,20.7421825 65.8181453,20.2421875 64.8220466,20.2421875 C64.3532942,20.2421875 63.9792745,20.3759752 63.6999763,20.6435547 C63.420678,20.9111342 63.281031,21.2656228 63.281031,21.7070312 L62.1970466,21.7070312 C62.1970466,21.0312466 62.4441144,20.4697288 62.9382575,20.0224609 C63.4324006,19.5751931 64.060324,19.3515625 64.8220466,19.3515625 C65.6267381,19.3515625 66.2575912,19.564451 66.7146247,19.9902344 C67.1716582,20.4160178 67.4001716,21.0078087 67.4001716,21.765625 C67.4001716,22.1367206 67.2800556,22.496092 67.03982,22.84375 C66.7995844,23.191408 66.4724393,23.451171 66.0583747,23.6230469 C66.5271271,23.7714851 66.8894281,24.0175764 67.1452888,24.3613281 C67.4011494,24.7050798 67.5290778,25.1249975 67.5290778,25.6210938 C67.5290778,26.3867226 67.2790803,26.9941384 66.7790778,27.4433594 C66.2790753,27.8925804 65.6286912,28.1171875 64.827906,28.1171875 C64.0271207,28.1171875 63.37576,27.9003928 62.8738044,27.4667969 C62.3718488,27.033201 62.1208747,26.4609411 62.1208747,25.75 L63.2107185,25.75 C63.2107185,26.199221 63.3572014,26.5585924 63.6501716,26.828125 C63.9431418,27.0976576 64.335716,27.2324219 64.827906,27.2324219 C65.3513461,27.2324219 65.7517327,27.0957045 66.0290778,26.8222656 C66.306423,26.5488268 66.4450935,26.1562526 66.4450935,25.6445312 C66.4450935,25.148435 66.2927512,24.7675795 65.9880622,24.5019531 C65.6833732,24.2363268 65.2439245,24.0996094 64.6697028,24.0917969 L63.8552497,24.0917969 L63.8552497,23.2070312 Z" id="3" fill="#FFFFFF" opacity="0.457254464"/>
            <path d="M60.7948489,55 L59.7050051,55 L59.7050051,47.7753906 L57.5194582,48.578125 L57.5194582,47.59375 L60.624927,46.4277344 L60.7948489,46.4277344 L60.7948489,55 Z M67.5331301,55 L66.4432864,55 L66.4432864,47.7753906 L64.2577395,48.578125 L64.2577395,47.59375 L67.3632082,46.4277344 L67.5331301,46.4277344 L67.5331301,55 Z" id="11" fill="#FFFFFF" opacity="0.457254464"/>
            <path d="M105.21039,25.1347656 L106.393984,25.1347656 L106.393984,26.0195312 L105.21039,26.0195312 L105.21039,28 L104.120546,28 L104.120546,26.0195312 L100.235781,26.0195312 L100.235781,25.3808594 L104.056093,19.46875 L105.21039,19.46875 L105.21039,25.1347656 Z M101.466249,25.1347656 L104.120546,25.1347656 L104.120546,20.9511719 L103.99164,21.1855469 L101.466249,25.1347656 Z" id="4" fill="#FFFFFF" opacity="0.457254464"/>
            <path d="M99.149989,55 L98.0601453,55 L98.0601453,47.7753906 L95.8745984,48.578125 L95.8745984,47.59375 L98.9800672,46.4277344 L99.149989,46.4277344 L99.149989,55 Z M107.915614,55 L102.32577,55 L102.32577,54.2207031 L105.278895,50.9394531 C105.716397,50.4433569 106.018152,50.0400406 106.184169,49.7294922 C106.350185,49.4189438 106.433192,49.0976579 106.433192,48.765625 C106.433192,48.3203103 106.298428,47.9550796 106.028895,47.6699219 C105.759363,47.3847642 105.399991,47.2421875 104.95077,47.2421875 C104.411705,47.2421875 103.992764,47.3955063 103.693934,47.7021484 C103.395105,48.0087906 103.245692,48.4355441 103.245692,48.9824219 L102.161708,48.9824219 C102.161708,48.1972617 102.414635,47.5625024 102.920497,47.078125 C103.426359,46.5937476 104.10311,46.3515625 104.95077,46.3515625 C105.743743,46.3515625 106.37069,46.5595682 106.83163,46.9755859 C107.292569,47.3916036 107.523036,47.945309 107.523036,48.6367188 C107.523036,49.4765667 106.987885,50.4765567 105.917567,51.6367188 L103.632411,54.1152344 L107.915614,54.1152344 L107.915614,55 Z" id="12" fill="#FFFFFF"/>
            <path d="M139.487405,23.7226562 L139.920999,19.46875 L144.292093,19.46875 L144.292093,20.4707031 L140.840921,20.4707031 L140.583108,22.796875 C141.001079,22.55078 141.475684,22.4277344 142.006936,22.4277344 C142.784284,22.4277344 143.401465,22.6845677 143.858499,23.1982422 C144.315532,23.7119166 144.544046,24.4062456 144.544046,25.28125 C144.544046,26.1601606 144.306743,26.8525365 143.832132,27.3583984 C143.35752,27.8642603 142.694441,28.1171875 141.842874,28.1171875 C141.088964,28.1171875 140.473736,27.9082052 139.997171,27.4902344 C139.520606,27.0722635 139.249124,26.4941443 139.182718,25.7558594 L140.208108,25.7558594 C140.274515,26.2441431 140.448341,26.6123034 140.729593,26.8603516 C141.010844,27.1083997 141.381934,27.2324219 141.842874,27.2324219 C142.346783,27.2324219 142.742286,27.0605486 143.029397,26.7167969 C143.316508,26.3730452 143.460061,25.8984405 143.460061,25.2929688 C143.460061,24.7226534 143.304789,24.2646502 142.994241,23.9189453 C142.683693,23.5732405 142.270611,23.4003906 141.754983,23.4003906 C141.282325,23.4003906 140.911235,23.5039052 140.641702,23.7109375 L140.354593,23.9453125 L139.487405,23.7226562 Z" id="5" fill="#FFFFFF" opacity="0.457254464"/>
            <path d="M138.514475,55 L137.424631,55 L137.424631,47.7753906 L135.239084,48.578125 L135.239084,47.59375 L138.344553,46.4277344 L138.514475,46.4277344 L138.514475,55 Z M143.266428,50.2070312 L144.080881,50.2070312 C144.592603,50.1992187 144.994942,50.0644544 145.287913,49.8027344 C145.580883,49.5410143 145.727366,49.1875022 145.727366,48.7421875 C145.727366,47.7421825 145.229324,47.2421875 144.233225,47.2421875 C143.764473,47.2421875 143.390453,47.3759752 143.111155,47.6435547 C142.831856,47.9111342 142.692209,48.2656228 142.692209,48.7070312 L141.608225,48.7070312 C141.608225,48.0312466 141.855293,47.4697288 142.349436,47.0224609 C142.843579,46.5751931 143.471502,46.3515625 144.233225,46.3515625 C145.037917,46.3515625 145.66877,46.564451 146.125803,46.9902344 C146.582837,47.4160178 146.81135,48.0078087 146.81135,48.765625 C146.81135,49.1367206 146.691234,49.496092 146.450998,49.84375 C146.210763,50.191408 145.883618,50.451171 145.469553,50.6230469 C145.938305,50.7714851 146.300607,51.0175764 146.556467,51.3613281 C146.812328,51.7050798 146.940256,52.1249975 146.940256,52.6210938 C146.940256,53.3867226 146.690259,53.9941384 146.190256,54.4433594 C145.690254,54.8925804 145.03987,55.1171875 144.239084,55.1171875 C143.438299,55.1171875 142.786938,54.9003928 142.284983,54.4667969 C141.783027,54.033201 141.532053,53.4609411 141.532053,52.75 L142.621897,52.75 C142.621897,53.199221 142.76838,53.5585924 143.06135,53.828125 C143.35432,54.0976576 143.746894,54.2324219 144.239084,54.2324219 C144.762525,54.2324219 145.162911,54.0957045 145.440256,53.8222656 C145.717601,53.5488268 145.856272,53.1562526 145.856272,52.6445312 C145.856272,52.148435 145.70393,51.7675795 145.399241,51.5019531 C145.094552,51.2363268 144.655103,51.0996094 144.080881,51.0917969 L143.266428,51.0917969 L143.266428,50.2070312 Z" id="13" fill="#FFFFFF" opacity="0.457254464"/>
            <path d="M181.598405,19.4628906 L181.598405,20.3828125 L181.399186,20.3828125 C180.555432,20.3984376 179.883563,20.6484351 179.383561,21.1328125 C178.883558,21.6171899 178.594499,22.2988237 178.516373,23.1777344 C178.965594,22.6621068 179.57887,22.4042969 180.356217,22.4042969 C181.098408,22.4042969 181.691176,22.666013 182.134537,23.1894531 C182.577899,23.7128932 182.799577,24.3886677 182.799577,25.2167969 C182.799577,26.0957075 182.560321,26.7988255 182.081803,27.3261719 C181.603285,27.8535183 180.96169,28.1171875 180.156998,28.1171875 C179.340588,28.1171875 178.678485,27.8037141 178.17067,27.1767578 C177.662855,26.5498016 177.408952,25.7421924 177.408952,24.7539062 L177.408952,24.3378906 C177.408952,22.7675703 177.743909,21.567387 178.413834,20.7373047 C179.08376,19.9072224 180.08082,19.482422 181.405045,19.4628906 L181.598405,19.4628906 Z M180.174577,23.3066406 C179.803481,23.3066406 179.461687,23.4179676 179.149186,23.640625 C178.836684,23.8632824 178.61989,24.1425764 178.498795,24.4785156 L178.498795,24.8769531 C178.498795,25.5800816 178.656997,26.1464822 178.973405,26.5761719 C179.289812,27.0058615 179.68434,27.2207031 180.156998,27.2207031 C180.645282,27.2207031 181.029067,27.0410174 181.308366,26.6816406 C181.587664,26.3222638 181.727311,25.8515654 181.727311,25.2695312 C181.727311,24.6835908 181.585711,24.2099627 181.302506,23.8486328 C181.019302,23.4873029 180.643329,23.3066406 180.174577,23.3066406 Z" id="6" fill="#FFFFFF" opacity="0.457254464"/>
            <path d="M176.869615,55 L175.779771,55 L175.779771,47.7753906 L173.594225,48.578125 L173.594225,47.59375 L176.699693,46.4277344 L176.869615,46.4277344 L176.869615,55 Z M184.621568,52.1347656 L185.805162,52.1347656 L185.805162,53.0195312 L184.621568,53.0195312 L184.621568,55 L183.531725,55 L183.531725,53.0195312 L179.646959,53.0195312 L179.646959,52.3808594 L183.467271,46.46875 L184.621568,46.46875 L184.621568,52.1347656 Z M180.877428,52.1347656 L183.531725,52.1347656 L183.531725,47.9511719 L183.402818,48.1855469 L180.877428,52.1347656 Z" id="14" fill="#FFFFFF" opacity="0.457254464"/>
            <polygon id="7" fill="#FFFFFF" opacity="0.457254464" points="221.207451 20.078125 217.674248 28 216.537529 28 220.059014 20.359375 215.441826 20.359375 215.441826 19.46875 221.207451 19.46875"/>
            <path d="M215.224755,55 L214.134912,55 L214.134912,47.7753906 L211.949365,48.578125 L211.949365,47.59375 L215.054834,46.4277344 L215.224755,46.4277344 L215.224755,55 Z M218.898584,50.7226562 L219.332177,46.46875 L223.703271,46.46875 L223.703271,47.4707031 L220.252099,47.4707031 L219.994287,49.796875 C220.412257,49.55078 220.886862,49.4277344 221.418115,49.4277344 C222.195462,49.4277344 222.812644,49.6845677 223.269677,50.1982422 C223.726711,50.7119166 223.955224,51.4062456 223.955224,52.28125 C223.955224,53.1601606 223.717922,53.8525365 223.24331,54.3583984 C222.768698,54.8642603 222.105619,55.1171875 221.254052,55.1171875 C220.500142,55.1171875 219.884914,54.9082052 219.408349,54.4902344 C218.931784,54.0722635 218.660303,53.4941443 218.593896,52.7558594 L219.619287,52.7558594 C219.685693,53.2441431 219.85952,53.6123034 220.140771,53.8603516 C220.422022,54.1083997 220.793112,54.2324219 221.254052,54.2324219 C221.757961,54.2324219 222.153465,54.0605486 222.440576,53.7167969 C222.727687,53.3730452 222.87124,52.8984405 222.87124,52.2929688 C222.87124,51.7226534 222.715968,51.2646502 222.405419,50.9189453 C222.094871,50.5732405 221.681789,50.4003906 221.166162,50.4003906 C220.693503,50.4003906 220.322413,50.5039052 220.05288,50.7109375 L219.765771,50.9453125 L218.898584,50.7226562 Z" id="15" fill="#FFFFFF"/>
            <path d="M259.228607,21.6953125 C259.228607,22.1210959 259.116303,22.4999983 258.891693,22.8320312 C258.667082,23.1640642 258.363374,23.4238272 257.98056,23.6113281 C258.425875,23.8027353 258.77841,24.0820294 259.038177,24.4492188 C259.297944,24.8164081 259.427826,25.2324196 259.427826,25.6972656 C259.427826,26.4355506 259.178805,27.0234353 258.680755,27.4609375 C258.182706,27.8984397 257.527439,28.1171875 256.714935,28.1171875 C255.894618,28.1171875 255.237398,27.8974631 254.743255,27.4580078 C254.249112,27.0185525 254.002044,26.4316443 254.002044,25.6972656 C254.002044,25.2363258 254.12802,24.8203144 254.379974,24.4492188 C254.631928,24.0781231 254.980558,23.796876 255.425873,23.6054688 C255.046964,23.4179678 254.748139,23.1582048 254.529388,22.8261719 C254.310637,22.494139 254.201263,22.1171896 254.201263,21.6953125 C254.201263,20.9765589 254.43173,20.4062521 254.892669,19.984375 C255.353609,19.5624979 255.961025,19.3515625 256.714935,19.3515625 C257.464939,19.3515625 258.071378,19.5624979 258.534271,19.984375 C258.997164,20.4062521 259.228607,20.9765589 259.228607,21.6953125 Z M258.343841,25.6738281 C258.343841,25.1972632 258.192476,24.8085953 257.88974,24.5078125 C257.587004,24.2070297 257.1915,24.0566406 256.703216,24.0566406 C256.214933,24.0566406 255.823335,24.2050766 255.528412,24.5019531 C255.233488,24.7988296 255.086029,25.1894507 255.086029,25.6738281 C255.086029,26.1582055 255.229582,26.5390611 255.516693,26.8164062 C255.803804,27.0937514 256.203214,27.2324219 256.714935,27.2324219 C257.22275,27.2324219 257.621184,27.0927748 257.910248,26.8134766 C258.199311,26.5341783 258.343841,26.1542993 258.343841,25.6738281 Z M256.714935,20.2421875 C256.289152,20.2421875 255.944429,20.3740221 255.680755,20.6376953 C255.417082,20.9013685 255.285248,21.2597634 255.285248,21.7128906 C255.285248,22.1464865 255.415129,22.497069 255.674896,22.7646484 C255.934663,23.0322279 256.281339,23.1660156 256.714935,23.1660156 C257.148531,23.1660156 257.495207,23.0322279 257.754974,22.7646484 C258.014741,22.497069 258.144623,22.1464865 258.144623,21.7128906 C258.144623,21.2792947 258.009858,20.9257826 257.740326,20.6523438 C257.470793,20.3789049 257.129,20.2421875 256.714935,20.2421875 Z" id="8" fill="#FFFFFF" opacity="0.457254464"/>
            <path d="M253.579896,55 L252.490052,55 L252.490052,47.7753906 L250.304505,48.578125 L250.304505,47.59375 L253.409974,46.4277344 L253.579896,46.4277344 L253.579896,55 Z M261.009583,46.4628906 L261.009583,47.3828125 L260.810364,47.3828125 C259.96661,47.3984376 259.294742,47.6484351 258.794739,48.1328125 C258.294737,48.6171899 258.005677,49.2988237 257.927552,50.1777344 C258.376773,49.6621068 258.990048,49.4042969 259.767396,49.4042969 C260.509587,49.4042969 261.102354,49.666013 261.545716,50.1894531 C261.989077,50.7128932 262.210755,51.3886677 262.210755,52.2167969 C262.210755,53.0957075 261.9715,53.7988255 261.492982,54.3261719 C261.014464,54.8535183 260.372868,55.1171875 259.568177,55.1171875 C258.751767,55.1171875 258.089664,54.8037141 257.581849,54.1767578 C257.074034,53.5498016 256.82013,52.7421924 256.82013,51.7539062 L256.82013,51.3378906 C256.82013,49.7675703 257.155088,48.567387 257.825013,47.7373047 C258.494938,46.9072224 259.491998,46.482422 260.816224,46.4628906 L261.009583,46.4628906 Z M259.585755,50.3066406 C259.214659,50.3066406 258.872866,50.4179676 258.560364,50.640625 C258.247863,50.8632824 258.031068,51.1425764 257.909974,51.4785156 L257.909974,51.8769531 C257.909974,52.5800816 258.068175,53.1464822 258.384583,53.5761719 C258.700991,54.0058615 259.095518,54.2207031 259.568177,54.2207031 C260.056461,54.2207031 260.440246,54.0410174 260.719544,53.6816406 C260.998842,53.3222638 261.138489,52.8515654 261.138489,52.2695312 C261.138489,51.6835908 260.996889,51.2099627 260.713685,50.8486328 C260.43048,50.4873029 260.054507,50.3066406 259.585755,50.3066406 Z" id="16" fill="#FFFFFF"/>
            <path d="M296.564216,24.25 C296.337652,24.5195326 296.067147,24.7363273 295.752692,24.9003906 C295.438238,25.0644539 295.093515,25.1464844 294.718513,25.1464844 C294.226323,25.1464844 293.797616,25.0253918 293.43238,24.7832031 C293.067144,24.5410144 292.78492,24.2001975 292.5857,23.7607422 C292.38648,23.3212869 292.286872,22.8359402 292.286872,22.3046875 C292.286872,21.7343721 292.395269,21.2207054 292.612067,20.7636719 C292.828865,20.3066383 293.136479,19.9570325 293.534919,19.7148438 C293.933358,19.472655 294.398198,19.3515625 294.92945,19.3515625 C295.773204,19.3515625 296.438237,19.666989 296.924567,20.2978516 C297.410898,20.9287141 297.65406,21.7890571 297.65406,22.8789062 L297.65406,23.1953125 C297.65406,24.8554771 297.325938,26.067379 296.669685,26.8310547 C296.013431,27.5947304 295.023207,27.986328 293.698981,28.0058594 L293.488044,28.0058594 L293.488044,27.0917969 L293.71656,27.0917969 C294.611095,27.0761718 295.298588,26.8427757 295.77906,26.3916016 C296.259531,25.9404274 296.521247,25.2265674 296.564216,24.25 Z M294.894294,24.25 C295.257577,24.25 295.592535,24.138673 295.899177,23.9160156 C296.205819,23.6933583 296.42945,23.4179704 296.570075,23.0898438 L296.570075,22.65625 C296.570075,21.9453089 296.41578,21.3671897 296.107185,20.921875 C295.798589,20.4765603 295.407968,20.2539062 294.93531,20.2539062 C294.458745,20.2539062 294.075936,20.4365216 293.786872,20.8017578 C293.497808,21.166994 293.353278,21.6484345 293.353278,22.2460938 C293.353278,22.8281279 293.492925,23.3076153 293.772224,23.6845703 C294.051522,24.0615253 294.425542,24.25 294.894294,24.25 Z" id="9" fill="#FFFFFF" opacity="0.457254464"/>
            <path d="M291.935036,55 L290.845192,55 L290.845192,47.7753906 L288.659645,48.578125 L288.659645,47.59375 L291.765114,46.4277344 L291.935036,46.4277344 L291.935036,55 Z M300.61863,47.078125 L297.085426,55 L295.948708,55 L299.470192,47.359375 L294.853005,47.359375 L294.853005,46.46875 L300.61863,46.46875 L300.61863,47.078125 Z" id="17" fill="#FFFFFF" opacity="0.457254464"/>
        </g>
    </g>
</svg>
