<svg width="36" height="36" viewBox="0 0 36 36" fill="none" xmlns="http://www.w3.org/2000/svg">
<path d="M36.0004 18.0001C36.0004 27.9412 27.9415 36.0001 18.0004 36.0001C8.05924 36.0001 0.000366211 27.9412 0.000366211 18.0001C0.000366211 8.05894 8.05924 6.10352e-05 18.0004 6.10352e-05C27.9415 6.10352e-05 36.0004 8.05894 36.0004 18.0001ZM7.20037 18.0001C7.20037 23.9647 12.0357 28.8001 18.0004 28.8001C23.965 28.8001 28.8004 23.9647 28.8004 18.0001C28.8004 12.0354 23.965 7.20006 18.0004 7.20006C12.0357 7.20006 7.20037 12.0354 7.20037 18.0001Z" fill="#595AD4"/>
<path d="M18.0004 6.10352e-05C21.16 6.10728e-05 24.264 0.831774 27.0004 2.4116C29.7367 3.99143 32.009 6.26372 33.5888 9.00006C35.1687 11.7364 36.0004 14.8404 36.0004 18.0001C36.0004 21.1597 35.1687 24.2637 33.5888 27.0001L27.3534 23.4001C28.3013 21.7583 28.8004 19.8959 28.8004 18.0001C28.8004 16.1043 28.3013 14.2419 27.3534 12.6001C26.4055 10.9583 25.0422 9.59488 23.4004 8.64699C21.7586 7.69909 19.8962 7.20006 18.0004 7.20006V6.10352e-05Z" fill="#FDAB3D"/>
<path d="M33.5888 27.0001C32.009 29.7364 29.7367 32.0087 27.0004 33.5885C24.264 35.1683 21.16 36.0001 18.0004 36.0001C14.8407 36.0001 11.7367 35.1684 9.00037 33.5885C6.26402 32.0087 3.99174 29.7364 2.41191 27.0001L8.64729 23.4001C9.59519 25.0419 10.9586 26.4052 12.6004 27.3531C14.2422 28.301 16.1046 28.8001 18.0004 28.8001C19.8962 28.8001 21.7586 28.301 23.4004 27.3531C25.0422 26.4052 26.4055 25.0419 27.3534 23.4001L33.5888 27.0001Z" fill="#009AFF"/>
</svg>
