<svg xmlns="http://www.w3.org/2000/svg" xmlns:xlink="http://www.w3.org/1999/xlink" width="324px" height="75px" viewBox="0 0 324 75" version="1.1">
    <!-- Generator: Sketch 50.2 (55047) - http://www.bohemiancoding.com/sketch -->
    <title>map</title>
    <desc>Created with Sketch.</desc>
    <defs>
        <rect id="path-1" x="0" y="0" width="325" height="76"/>
        <path d="M125,24.7177719 C125,28.4759953 122.91659,32.2906325 119.470222,36.00249 C118.282605,37.281595 117.01264,38.4578995 115.742385,39.5067824 C115.297283,39.8743151 114.883371,40.2000903 114.510928,40.4808839 C114.284943,40.6512592 114.121178,40.7700223 114.029928,40.8339043 C113.713588,41.0553652 113.286412,41.0553652 112.970072,40.8339043 C112.878822,40.7700223 112.715057,40.6512592 112.489072,40.4808839 C112.116629,40.2000903 111.702717,39.8743151 111.257615,39.5067824 C109.98736,38.4578995 108.717395,37.281595 107.529778,36.00249 C104.08341,32.2906325 102,28.4759953 102,24.7177719 C102,18.1434608 106.920017,13 113.5,13 C120.079195,13 125,18.1438811 125,24.7177719 Z M113.538552,30.5 C117.028393,30.5 119.857432,27.7577248 119.857432,24.375 C119.857432,20.9922752 117.028393,18.25 113.538552,18.25 C110.048712,18.25 107.219673,20.9922752 107.219673,24.375 C107.219673,27.7577248 110.048712,30.5 113.538552,30.5 Z" id="path-3"/>
        <filter x="-121.7%" y="-71.4%" width="343.5%" height="300.0%" filterUnits="objectBoundingBox" id="filter-4">
            <feOffset dx="0" dy="8" in="SourceAlpha" result="shadowOffsetOuter1"/>
            <feGaussianBlur stdDeviation="8" in="shadowOffsetOuter1" result="shadowBlurOuter1"/>
            <feColorMatrix values="0 0 0 0 0   0 0 0 0 0   0 0 0 0 0  0 0 0 0.459437274 0" type="matrix" in="shadowBlurOuter1"/>
        </filter>
        <path d="M303,39.5328534 C303,41.9488541 301.641255,44.4011209 299.393623,46.787315 C298.61909,47.6095968 297.790852,48.3657925 296.962425,49.0400744 C296.672141,49.2763454 296.402198,49.4857723 296.159301,49.6662825 C296.01192,49.7758095 295.905116,49.8521572 295.845605,49.8932242 C295.639296,50.0355919 295.360704,50.0355919 295.154395,49.8932242 C295.094884,49.8521572 294.98808,49.7758095 294.840699,49.6662825 C294.597802,49.4857723 294.327859,49.2763454 294.037575,49.0400744 C293.209148,48.3657925 292.38091,47.6095968 291.606377,46.787315 C289.358745,44.4011209 288,41.9488541 288,39.5328534 C288,35.3065105 291.208707,32 295.5,32 C299.790779,32 303,35.3067807 303,39.5328534 Z M295.525143,43.25 C297.801126,43.25 299.646151,41.4871088 299.646151,39.3125 C299.646151,37.1378912 297.801126,35.375 295.525143,35.375 C293.24916,35.375 291.404134,37.1378912 291.404134,39.3125 C291.404134,41.4871088 293.24916,43.25 295.525143,43.25 Z" id="path-5"/>
        <filter x="-186.7%" y="-111.1%" width="473.3%" height="411.1%" filterUnits="objectBoundingBox" id="filter-6">
            <feOffset dx="0" dy="8" in="SourceAlpha" result="shadowOffsetOuter1"/>
            <feGaussianBlur stdDeviation="8" in="shadowOffsetOuter1" result="shadowBlurOuter1"/>
            <feColorMatrix values="0 0 0 0 0   0 0 0 0 0   0 0 0 0 0  0 0 0 0.459437274 0" type="matrix" in="shadowBlurOuter1"/>
        </filter>
        <path d="M214,25.1849185 C214,26.5271412 213.275336,27.8895116 212.076599,29.215175 C211.663515,29.6719982 211.221788,30.0921069 210.77996,30.466708 C210.625142,30.5979697 210.481172,30.714318 210.351627,30.8146014 C210.273024,30.8754497 210.216062,30.9178651 210.184323,30.9406801 C210.074291,31.0197733 209.925709,31.0197733 209.815677,30.9406801 C209.783938,30.9178651 209.726976,30.8754497 209.648373,30.8146014 C209.518828,30.714318 209.374858,30.5979697 209.22004,30.466708 C208.778212,30.0921069 208.336485,29.6719982 207.923401,29.215175 C206.724664,27.8895116 206,26.5271412 206,25.1849185 C206,22.8369503 207.71131,21 210,21 C212.288416,21 214,22.8371004 214,25.1849185 Z M210.013409,27.25 C211.227267,27.25 212.211281,26.270616 212.211281,25.0625 C212.211281,23.854384 211.227267,22.875 210.013409,22.875 C208.799552,22.875 207.815538,23.854384 207.815538,25.0625 C207.815538,26.270616 208.799552,27.25 210.013409,27.25 Z" id="path-7"/>
        <filter x="-350.0%" y="-200.0%" width="800.0%" height="660.0%" filterUnits="objectBoundingBox" id="filter-8">
            <feOffset dx="0" dy="8" in="SourceAlpha" result="shadowOffsetOuter1"/>
            <feGaussianBlur stdDeviation="8" in="shadowOffsetOuter1" result="shadowBlurOuter1"/>
            <feColorMatrix values="0 0 0 0 0   0 0 0 0 0   0 0 0 0 0  0 0 0 0.459437274 0" type="matrix" in="shadowBlurOuter1"/>
        </filter>
    </defs>
    <g id="map" stroke="none" stroke-width="1" fill="none" fill-rule="evenodd">
        <g id="Group-7-Copy-3" transform="translate(-1.000000, 0.000000)">
            <g id="Group-31">
                <mask id="mask-2" fill="white">
                    <use xlink:href="#path-1"/>
                </mask>
                <use id="Mask" fill="#23165B" xlink:href="#path-1"/>
                <g mask="url(#mask-2)" stroke="#150B40" stroke-width="2">
                    <g transform="translate(-36.448598, -44.586667)">
                        <path d="M363.47352,112.48 L176.168224,28.3733333" id="Path-3"/>
                        <path d="M201.479751,146.933333 L14.1744548,62.8266667" id="Path-3-Copy-2"/>
                        <path d="M202.492212,111.466667 L0,18.24" id="Path-3-Copy-3"/>
                        <path d="M363.47352,84.1066667 L176.168224,0" id="Path-3-Copy"/>
                        <polyline id="Path-4" points="280.451713 31.4133333 233.878505 97.28 117.445483 31.4133333"/>
                        <path d="M334.61838,18.7466667 L262.227414,128.693333" id="Path-5"/>
                        <path d="M371.573209,32.4266667 L310.825545,128.693333" id="Path-5-Copy"/>
                        <path d="M287.538941,103.619386 C328.037383,129.706667 204.517134,44.8460527 185.280374,70.179386" id="Path-6"/>
                        <path d="M172.11838,62.8266667 L114.4081,128.693333" id="Path-7"/>
                        <path d="M233.878505,76 L176.168224,141.866667" id="Path-7-Copy"/>
                        <path d="M126.557632,35.4666667 L35.4361371,133.76" id="Path-7-Copy-2"/>
                    </g>
                </g>
            </g>
            <g id="Combined-Shape" fill-rule="nonzero">
                <use fill="black" fill-opacity="1" filter="url(#filter-4)" xlink:href="#path-3"/>
                <use fill="#00CFF4" fill-rule="evenodd" xlink:href="#path-3"/>
            </g>
            <g id="Combined-Shape-Copy-3" fill-rule="nonzero">
                <use fill="black" fill-opacity="1" filter="url(#filter-6)" xlink:href="#path-5"/>
                <use fill="#A358DF" fill-rule="evenodd" xlink:href="#path-5"/>
            </g>
            <g id="Combined-Shape-Copy-4" fill-rule="nonzero">
                <use fill="black" fill-opacity="1" filter="url(#filter-8)" xlink:href="#path-7"/>
                <use fill="#00CC6F" fill-rule="evenodd" xlink:href="#path-7"/>
            </g>
        </g>
    </g>
</svg>
