<svg width="36" height="36" viewBox="0 0 36 36" fill="none" xmlns="http://www.w3.org/2000/svg">
<circle cx="18" cy="18" r="18" fill="#595AD4"/>
<path d="M18 0C21.1597 3.76786e-08 24.2637 0.831713 27 2.41154C29.7363 3.99137 32.0086 6.26365 33.5885 9C35.1683 11.7363 36 14.8403 36 18C36 21.1597 35.1683 24.2637 33.5885 27L18 18V0Z" fill="#FDAB3D"/>
<path d="M33.5885 27C32.0086 29.7363 29.7363 32.0086 27 33.5885C24.2637 35.1683 21.1597 36 18 36C14.8403 36 11.7363 35.1683 9 33.5885C6.26365 32.0086 3.99137 29.7363 2.41154 27L18 18L33.5885 27Z" fill="#009AFF"/>
</svg>
