<svg width="38" height="29" viewBox="0 0 38 29" fill="none" xmlns="http://www.w3.org/2000/svg">
<path d="M1.00134 15.4375L5.26186 16.6811C6.96793 17.1791 8.80729 16.6263 9.95616 15.2703L12.3586 12.4347C13.6703 10.8865 15.8559 10.4077 17.6947 11.2657L21.636 13.1048C23.4159 13.9352 25.5288 13.5154 26.8559 12.0676L37.0012 1.00006" stroke="#784BD1" stroke-width="1.57499" stroke-linecap="round" stroke-linejoin="round"/>
<path d="M36.9999 12.8125L31.8106 15.0365C30.9191 15.4185 30.1748 16.0785 29.6889 16.9179L28.1972 19.4945C27.1062 21.3789 24.8224 22.2119 22.7744 21.4723L22.6417 21.4244C20.8107 20.7632 18.7624 21.3713 17.5888 22.9246V22.9246C15.5818 25.581 11.4738 25.1668 10.0374 22.1633L7.00001 15.8125L1.00004 3.25003" stroke="#009AFF" stroke-width="1.57499" stroke-linecap="round" stroke-linejoin="round"/>
</svg>
