<svg width="36" height="36" viewBox="0 0 36 36" fill="none" xmlns="http://www.w3.org/2000/svg">
<path d="M0 24.4801H4.5V35.2501C4.5 35.6643 4.16421 36.0001 3.75 36.0001H0.75C0.335787 36.0001 0 35.6643 0 35.2501V24.4801Z" fill="#784BD1"/>
<path d="M10.5002 15.8401H15.0002V35.2501C15.0002 35.6643 14.6645 36.0001 14.2502 36.0001H11.2502C10.836 36.0001 10.5002 35.6643 10.5002 35.2501V15.8401Z" fill="#784BD1"/>
<path d="M20.9999 22.6801H25.4999V35.2501C25.4999 35.6643 25.1641 36.0001 24.7499 36.0001H21.7499C21.3357 36.0001 20.9999 35.6643 20.9999 35.2501V22.6801Z" fill="#784BD1"/>
<path d="M31.5001 28.0801H36.0001V35.2501C36.0001 35.6643 35.6643 36.0001 35.2501 36.0001H32.2501C31.8359 36.0001 31.5001 35.6643 31.5001 35.2501V28.0801Z" fill="#784BD1"/>
<path d="M0 0.750061C0 0.335848 0.335786 6.10352e-05 0.75 6.10352e-05H3.75C4.16421 6.10352e-05 4.5 0.335847 4.5 0.750061V20.8801H0V0.750061Z" fill="#009AFF"/>
<path d="M10.5002 0.750076C10.5002 0.335863 10.836 7.62939e-05 11.2502 7.62939e-05H14.2502C14.6645 7.62939e-05 15.0002 0.335863 15.0002 0.750076V7.20008H10.5002V0.750076Z" fill="#009AFF"/>
<path d="M20.9999 0.750075C20.9999 0.335862 21.3357 7.62939e-05 21.7499 7.62939e-05H24.7499C25.1641 7.62939e-05 25.4999 0.335863 25.4999 0.750076V17.6401H20.9999V0.750075Z" fill="#009AFF"/>
<path d="M31.5001 0.750077C31.5001 0.335863 31.8359 7.62939e-05 32.2501 7.62939e-05H35.2501C35.6643 7.62939e-05 36.0001 0.335863 36.0001 0.750076V10.0801H31.5001V0.750077Z" fill="#009AFF"/>
<path d="M0 20.8801H4.5V24.4801H0V20.8801Z" fill="#FDAB3D"/>
<path d="M10.5002 7.20007H15.0002V15.8401H10.5002V7.20007Z" fill="#FDAB3D"/>
<path d="M20.9999 17.6401H25.4999V22.6801H20.9999V17.6401Z" fill="#FDAB3D"/>
<path d="M31.5001 10.0801H36.0001V28.0801H31.5001V10.0801Z" fill="#FDAB3D"/>
</svg>
