<svg width="36" height="37" viewBox="0 0 36 37" fill="none" xmlns="http://www.w3.org/2000/svg">
<mask id="mask0" mask-type="alpha" maskUnits="userSpaceOnUse" x="0" y="0" width="36" height="37">
<path d="M0 3.74994C0 2.09308 1.34315 0.749939 3 0.749939H33C34.6569 0.749939 36 2.09308 36 3.74994V33.7499C36 35.4068 34.6569 36.7499 33 36.7499H3C1.34315 36.7499 0 35.4068 0 33.7499V3.74994Z" fill="#C4C4C4"/>
</mask>
<g mask="url(#mask0)">
<path opacity="0.2" d="M36.0006 18.1874L36.0006 33.7499C36.0006 35.4067 34.6575 36.7499 33.0006 36.7499L3.00061 36.7499C1.34375 36.7499 0.000609629 35.4067 0.000609699 33.7499L0.000609946 27.8617L7.56061 30.0722L13.8606 22.5196L23.4006 27.1249L36.0006 18.1874Z" fill="#009AFF"/>
<path opacity="0.2" d="M36.0006 7.49988L36.0006 17.9999L24.0001 27.1874L14.0624 22.6874L7.87506 30.3749L0.000620946 27.7499L0.000621402 16.8749L4.87489 16.8749L8.43739 13.8749L14.0624 14.6249L23.2499 13.1249L26.6251 15.1874L33.5626 9.56238L36.0006 7.49988Z" fill="#784BD1"/>
<path opacity="0.2" d="M0.000611044 16.6874L0.000610989 1.49991L36.0006 1.49991L36.0006 7.87491L26.4374 15.3749L22.8749 13.3124L13.6874 14.6249L8.24988 13.8749L4.87488 16.6874L0.000611044 16.6874Z" fill="#FDAB3D"/>
<path d="M36.375 7.31235L26.6403 15.3748L23.0403 13.3123L13.6875 14.6248L8.25004 13.8748L4.86029 16.8748L-2.43765 16.8748" stroke="#784BD1" stroke-width="1.575" stroke-linecap="round" stroke-linejoin="round"/>
<path d="M36.3751 1.50015L26.6404 1.50015L-0.562381 1.50015" stroke="#FDAB3D" stroke-width="1.5" stroke-linecap="round" stroke-linejoin="round"/>
<path d="M0.000366211 27.7499L7.86352 30.3749L14.1162 22.6874L23.7604 27.3749L38.4373 16.3124" stroke="#009AFF" stroke-width="1.575" stroke-linecap="square" stroke-linejoin="round"/>
</g>
</svg>
